<svg width="140" height="36" viewBox="0 0 140 36" fill="none" xmlns="http://www.w3.org/2000/svg">
  <!-- Bold "qb" icon -->
  <text x="1" y="27" font-size="31" font-family="Arial, sans-serif" font-weight="bold" fill="#4ade80">qb</text>
  
  <!-- Bold "Qubitcoin" text -->
  <text x="40" y="19" font-size="21" font-family="Arial, sans-serif" font-weight="bold" fill="#4ade80">Qubitcoin</text>

  <!-- Bottom text bar (original style) -->
  <path d="M46.9784 33.6472L44.5781 24.9199H45.9515L47.6376 31.6784H47.7179L49.4717 24.9199H50.8324L52.5861 31.6827H52.6664L54.3483 24.9199H55.7259L53.3214 33.6472H52.0072L50.1858 27.1103H50.1182L48.2969 33.6472H46.9784Z" fill="#4ade80"/>
  <path d="M56.9039 33.6472H55.5178L58.6323 24.9199H60.1409L63.2553 33.6472H61.8693L59.4225 26.5051H59.3549L56.9039 33.6472ZM57.1363 30.2296H61.6326V31.3375H57.1363V30.2296Z" fill="#4ade80"/>
  <path d="M64.5051 33.6472V24.9199H65.8109V32.5137H69.7325V33.6472H64.5051Z" fill="#4ade80"/>
  <path d="M71.2221 33.6472V24.9199H72.5279V32.5137H76.4495V33.6472H71.2221Z" fill="#4ade80"/>
  <path d="M77.9391 33.6472V24.9199H83.3651V26.0534H79.2449V28.7125H83.082V29.8418H79.2449V32.5137H83.4158V33.6472H77.9391Z" fill="#4ade80"/>
  <path d="M84.6825 26.0534V24.9199H91.3805V26.0534H88.6802V33.6472H87.3786V26.0534H84.6825Z" fill="#4ade80"/>
</svg>